<?xml version="1.0" standalone="no"?><!DOCTYPE svg PUBLIC "-//W3C//DTD SVG 1.1//EN" "http://www.w3.org/Graphics/SVG/1.1/DTD/svg11.dtd"><svg t="1481600397646" class="icon" style="" viewBox="0 0 1024 1024" version="1.1" xmlns="http://www.w3.org/2000/svg" p-id="2389" xmlns:xlink="http://www.w3.org/1999/xlink" width="200" height="200"><defs><style type="text/css"></style></defs><path d="M510.980275 959.664739c-247.230778 0-447.669856-200.416566-447.669856-447.669856 0-247.252267 200.439078-447.669856 447.669856-447.669856 247.230778 0 447.669856 200.416566 447.669856 447.669856C958.650131 759.248174 758.211053 959.664739 510.980275 959.664739L510.980275 959.664739zM510.980275 105.551988c-224.471424 0-406.441872 181.971471-406.441872 406.442896S286.508851 918.438802 510.980275 918.438802c224.471424 0 406.442896-181.972495 406.442896-406.442896S735.4517 105.551988 510.980275 105.551988L510.980275 105.551988z" p-id="2390" fill="#ffffff"></path><path d="M751.89623 536.673959 422.076456 747.739049c-17.932418 11.573593-41.98523 5.560646-41.98523-28.191062L380.091226 303.905568c0-33.988092 22.435988-38.643112 41.98523-28.169573L751.89623 486.779595C770.366907 498.93545 770.90619 523.440563 751.89623 536.673959L751.89623 536.673959zM421.429727 697.973622l292.620547-186.236612-292.620547-185.740308C421.429727 356.968088 421.429727 689.87006 421.429727 697.973622L421.429727 697.973622z" p-id="2391" fill="#ffffff"></path></svg>