<?xml version="1.0" standalone="no"?><!DOCTYPE svg PUBLIC "-//W3C//DTD SVG 1.1//EN" "http://www.w3.org/Graphics/SVG/1.1/DTD/svg11.dtd"><svg t="1482118685611" class="icon" style="" viewBox="0 0 1024 1024" version="1.1" xmlns="http://www.w3.org/2000/svg" p-id="2946" xmlns:xlink="http://www.w3.org/1999/xlink" width="200" height="200"><defs><style type="text/css"></style></defs><path d="M669.952 157.504c125.376 0 227.392 101.888 227.392 227.136v53.248c0 132.736-104.128 244.864-227.392 244.864H564.736L548.16 694.4l-196.8 138.56V671.808l-48.512-12.096C195.84 633.024 126.656 545.92 126.656 437.888V384.64c0-125.248 102.016-227.136 227.392-227.136h315.904m0-64H354.048c-160.64 0-291.392 130.624-291.392 291.136v53.248c0 138.752 89.344 250.176 224.64 283.904V902.08c0 10.048 5.248 19.328 13.76 24.448a27.77 27.77 0 0 0 14.272 3.968c4.608 0 9.28-1.152 13.504-3.456l256.064-180.288h84.928c157.952 0 291.392-141.44 291.392-308.864V384.64c0.128-160.512-130.56-291.136-291.264-291.136z" fill="#cecece" p-id="2947"></path></svg>