<?xml version="1.0" standalone="no"?><!DOCTYPE svg PUBLIC "-//W3C//DTD SVG 1.1//EN" "http://www.w3.org/Graphics/SVG/1.1/DTD/svg11.dtd"><svg t="1481638287293" class="icon" style="" viewBox="0 0 1024 1024" version="1.1" xmlns="http://www.w3.org/2000/svg" p-id="4218" xmlns:xlink="http://www.w3.org/1999/xlink" width="200" height="200"><defs><style type="text/css"></style></defs><path d="M83.528392 181.004447c-10.594289 0-19.038612 8.468882-19.038612 19.037589 0 9.876951 8.470929 18.346857 19.038612 18.346857l858.586646 0c9.875928 0 18.346857-8.470929 18.346857-18.346857 0-10.568706-8.470929-19.037589-18.346857-19.037589L83.528392 181.004447 83.528392 181.004447zM832.060503 327.036381c0-10.568706-8.468882-19.038612-19.037589-19.038612-9.852392 0-18.321274 8.494465-18.321274 19.038612l0 567.95336L271.907807 894.989741 271.907807 325.627289c0-10.592242-8.468882-19.037589-18.346857-19.037589-10.592242 0-19.037589 8.468882-19.037589 19.037589l0 587.68475c0 10.594289 8.470929 19.038612 19.037589 19.038612l559.460941 0c10.593266 0 19.038612-8.470929 19.038612-19.038612L832.060503 327.035358 832.060503 327.036381 832.060503 327.036381zM419.34781 355.26019c0-10.594289-8.468882-19.038612-18.346857-19.038612-10.592242 0-19.037589 8.470929-19.037589 19.038612l0 442.343547c0 9.877975 8.468882 18.346857 19.037589 18.346857 9.877975 0 18.346857-8.468882 18.346857-18.346857L419.34781 355.26019 419.34781 355.26019zM558.318932 356.691795c0-10.615779-8.470929-19.037589-19.037589-19.037589-9.852392 0-18.321274 8.445346-18.321274 19.037589l0 441.629279c0 10.592242 8.468882 19.037589 18.321274 19.037589 10.592242 0 19.037589-8.470929 19.037589-19.037589L558.318932 356.691795 558.318932 356.691795zM373.494483 200.041012l0-71.955822c0-12.691043 4.938476-23.975041 13.408381-32.44597l0 0c8.468882-8.468882 20.470217-14.124695 33.162284-14.124695l237.766219 0c13.407358 0 24.693402 5.655813 33.162284 14.099113l0 0c8.470929 8.470929 13.408381 19.754926 13.408381 32.44597l0 71.955822-36.69269 0 0-71.930239c0-2.12336-1.407046-4.938476-2.815115-6.345522l0 0c-2.148943-1.406023-4.247744-2.815115-7.062859-2.815115L420.067194 118.924553c-2.815115 0-4.938476 1.407046-6.345522 2.815115l0 0c-2.099824 1.407046-2.815115 4.222161-2.815115 6.345522l0 71.955822-37.410028 0L373.494483 200.041012 373.494483 200.041012zM700.152241 356.691795c0-10.615779-8.468882-19.037589-19.037589-19.037589-9.852392 0-18.346857 8.445346-18.346857 19.037589l0 441.629279c0 10.592242 8.494465 19.037589 18.346857 19.037589 10.594289 0 19.037589-8.470929 19.037589-19.037589L700.152241 356.691795 700.152241 356.691795z" p-id="4219" fill="#CDD4D8"></path></svg>