<?xml version="1.0" standalone="no"?><!DOCTYPE svg PUBLIC "-//W3C//DTD SVG 1.1//EN" "http://www.w3.org/Graphics/SVG/1.1/DTD/svg11.dtd"><svg t="1481594015914" class="icon" style="" viewBox="0 0 1029 1024" version="1.1" xmlns="http://www.w3.org/2000/svg" p-id="7039" xmlns:xlink="http://www.w3.org/1999/xlink" width="200.9765625" height="200"><defs><style type="text/css"></style></defs><path d="M989.480571 68.231788l23.487122 23.608791L378.682572 724.363533l-75.10404 8.284622-8.395138-8.284622 8.395138-75.281474L937.863653 16.559106l23.373565 23.431357L989.480571 68.231788 989.480571 68.231788 989.480571 68.231788zM809.209177 1016.84791 181.854101 1016.84791c-99.416482 0-180.271394-80.742369-180.271394-180.038196l0-627.475732c0-99.296841 80.854912-180.093961 180.271394-180.093961l421.13784 0c17.783903 0 32.116472 14.388334 32.116472 32.061722 0 17.680485-14.332569 32.003929-32.116472 32.003929L181.854101 93.305673c-64.120401 0-116.205744 52.085342-116.205744 116.084075l0 627.365216c0 63.997719 52.085342 116.086103 116.205744 116.086103l627.355077 0c64.007858 0 116.095228-52.088384 116.095228-116.086103L925.304405 422.960842c0-17.793029 14.321416-32.126611 31.994804-32.126611 17.793029 0 32.126611 14.333583 32.126611 32.126611l0 413.793108C989.357889 936.105541 908.506018 1016.84791 809.209177 1016.84791L809.209177 1016.84791 809.209177 1016.84791zM809.209177 1016.84791" fill="#808080" p-id="7040"></path></svg>