<?xml version="1.0" standalone="no"?><!DOCTYPE svg PUBLIC "-//W3C//DTD SVG 1.1//EN" "http://www.w3.org/Graphics/SVG/1.1/DTD/svg11.dtd"><svg t="1481637553657" class="icon" style="" viewBox="0 0 1024 1024" version="1.1" xmlns="http://www.w3.org/2000/svg" p-id="1621" xmlns:xlink="http://www.w3.org/1999/xlink" width="200" height="200"><defs><style type="text/css"></style></defs><path d="M702.726 509.556l-417.678 417.713c-3.362 3.343-5.205 7.807-5.205 12.559 0 4.772 1.843 9.234 5.205 12.613 3.343 3.325 7.825 5.169 12.577 5.169s9.216-1.843 12.559-5.205l430.291-430.291c3.362-3.343 5.205-7.807 5.205-12.559 0-4.772-1.843-9.234-5.205-12.613l-430.291-430.237c-6.289-6.341-18.813-6.325-25.136-0.018-3.362 3.362-5.205 7.826-5.205 12.577 0 4.772 1.843 9.234 5.205 12.613l417.678 417.678z" p-id="1622" fill="#CDD4D8"></path></svg>