<?xml version="1.0" standalone="no"?><!DOCTYPE svg PUBLIC "-//W3C//DTD SVG 1.1//EN" "http://www.w3.org/Graphics/SVG/1.1/DTD/svg11.dtd"><svg t="1481638235427" class="icon" style="" viewBox="0 0 1024 1024" version="1.1" xmlns="http://www.w3.org/2000/svg" p-id="3495" xmlns:xlink="http://www.w3.org/1999/xlink" width="200" height="200"><defs><style type="text/css"></style></defs><path d="M869.619422 561.541323l-56.954153-45.019333c0.344854-5.708002 0.514723-11.119245 0.514723-16.350386 0-5.231141-0.169869-10.648524-0.515746-16.369829l56.927547-45.01217 0.274246-0.220011c22.233374-18.189268 28.000728-49.466622 13.730723-74.342172l-70.116941-122.645294c-10.31902-18.11252-29.647227-29.364795-50.440809-29.364795-7.275707 0-14.46955 1.352811-21.38096 4.019547l-66.871013 27.176966c-8.905834-5.901407-18.078751-11.299347-27.436886-16.144702l-10.131755-72.213695-0.039909-0.274246c-4.336772-28.201296-29.083385-49.467645-57.564044-49.467645L439.333492 105.313557c-28.860305 0-53.084009 20.881586-57.596789 49.65184l-10.161431 72.312956c-9.322319 4.834098-18.500353 10.232039-27.448142 16.143679l-66.729797-27.146267-0.294712-0.11768c-6.51846-2.537799-13.43294-3.825119-20.551058-3.825119-21.215184 0-40.781822 11.207249-51.048653 29.223578l-70.111824 122.636085c-14.304797 25.034163-8.407484 56.414871 14.023388 74.616418l56.854892 44.965098c-0.348947 5.638417-0.520863 11.066033-0.520863 16.398482 0 5.319146 0.170892 10.739599 0.520863 16.370853l-57.005318 45.010123-0.36839 0.297782c-22.100344 18.271132-27.759227 49.513694-13.503549 74.204026l70.182432 122.833583c10.371208 18.021445 29.735232 29.218462 50.535977 29.218462 7.341199 0 14.543228-1.385557 21.405519-4.115738l66.681702-27.101241c8.968256 5.934153 18.136056 11.328 27.41642 16.135492l10.133801 72.330352 0.052189 0.352017c4.498454 28.584012 28.694529 49.330522 57.533344 49.330522l140.241045 0c28.369118 0 53.145407-21.329794 57.632605-49.613978l10.151197-72.412217c9.434883-4.89652 18.60166-10.285251 27.414373-16.111956l66.731844 27.173896 0.160659 0.064468c6.744611 2.682086 13.893428 4.042059 21.251 4.042059 20.74037 0 40.096207-11.235902 50.555419-29.395494l69.958328-122.565477C897.783879 611.417267 891.985826 580.028373 869.619422 561.541323zM846.961376 615.147218l-70.027913 122.686227c-2.922563 5.074575-8.293897 8.227382-14.017248 8.227382-1.982144 0-3.875261-0.349971-5.629207-1.038656l-87.957261-35.81674-9.455349 6.810103c-12.724813 9.163707-26.456558 17.243733-40.813544 24.016996l-10.29139 4.854565-13.1853 94.085842c-1.337461 7.960299-8.193613 13.944594-16.010649 13.944594L439.333492 852.91753c-7.92653 0-14.592346-5.718235-15.904225-13.618159l-13.239536-94.494141-10.369162-4.835122c-13.873985-6.467295-27.587312-14.536065-40.762379-23.982204l-9.44-6.768147-87.730087 35.657104c-1.86958 0.73678-3.813862 1.110287-5.77861 1.110287-5.689582 0-11.197016-3.182482-13.998829-8.051373l-70.197782-122.859165c-3.957125-6.853082-2.405793-15.505136 3.675716-20.647249l74.66349-58.95267-1.130753-11.458983c-0.845251-8.566096-1.255597-16.365736-1.255597-23.846104 0-7.494695 0.410346-15.300474 1.255597-23.863501l1.12973-11.44875-74.382081-58.824757c-6.368034-5.230118-7.977695-13.827937-3.9121-20.942985l70.123081-122.656551c2.721994-4.77577 8.53642-7.983835 14.46955-7.983835 1.826602 0 3.560082 0.306992 5.15644 0.911766l87.818091 35.725666 9.441023-6.760984c13.109576-9.387811 26.852578-17.470907 40.84629-24.025183l10.334369-4.840238 13.220093-94.102215c1.347694-8.206916 7.894807-13.927197 15.965623-13.927197l140.281977 0c7.715729 0 14.687514 5.987365 15.918551 13.648858l13.243629 94.389764 10.349719 4.838192c14.07353 6.578836 27.78174 14.648628 40.744983 23.985274l9.449209 6.80601 87.640036-35.621289c2.009773-0.757247 4.053316-1.14201 6.076392-1.14201 5.694699 0 11.000542 3.102664 13.860682 8.123005l70.14764 122.69953c3.972475 6.924713 2.394537 15.616676-3.743254 20.722974l-74.531484 58.930157 1.063215 11.384281c0.824785 8.837272 1.225921 16.678868 1.225921 23.974018 0 7.303336-0.402159 15.137769-1.225921 23.951505l-1.065262 11.390421 74.160024 58.609863C849.358983 599.545892 851.020832 608.163153 846.961376 615.147218z" p-id="3496" fill="#CDD4D8"></path><path d="M509.527181 330.753029c-92.739171 0-168.18856 76.001975-168.18856 169.419598 0 93.420693 75.448366 169.423691 168.18856 169.423691 92.715635 0 168.144558-76.001975 168.144558-169.423691C677.671739 406.753981 602.242815 330.753029 509.527181 330.753029zM509.527181 627.479081c-69.515237 0-126.0703-57.109696-126.0703-127.306454 0-70.194712 56.555064-127.301338 126.0703-127.301338 69.491701 0 126.027321 57.106626 126.027321 127.301338C635.554502 570.369386 579.018881 627.479081 509.527181 627.479081z" p-id="3497" fill="#CDD4D8"></path></svg>