<?xml version="1.0" standalone="no"?><!DOCTYPE svg PUBLIC "-//W3C//DTD SVG 1.1//EN" "http://www.w3.org/Graphics/SVG/1.1/DTD/svg11.dtd"><svg t="1481638358870" class="icon" style="" viewBox="0 0 1024 1024" version="1.1" xmlns="http://www.w3.org/2000/svg" p-id="5651" xmlns:xlink="http://www.w3.org/1999/xlink" width="200" height="200"><defs><style type="text/css"></style></defs><path d="M595.172281 510.153956c65.850777-31.136138 111.601774-97.993848 111.601774-175.521572 0-107.119693-87.161129-194.276728-194.280822-194.276728s-194.276728 87.157036-194.276728 194.276728c0 77.526701 45.776579 144.385435 111.597681 175.521572-163.896814 40.457434-239.689011 200.774723-239.689011 351.376743 0 10.779507 8.736988 19.456121 19.460214 19.456121 10.779507 0 19.485797-8.706289 19.485797-19.456121 0-155.249877 88.668459-322.372152 283.397489-322.372152 194.724936 0 283.393395 167.122275 283.393395 322.372152 0 10.779507 8.735965 19.456121 19.484773 19.456121 10.752902 0 19.460214-8.706289 19.460214-19.456121C834.861292 710.927655 759.098771 550.610366 595.172281 510.153956L595.172281 510.153956zM357.161493 334.632383c0-85.644589 69.657476-155.330718 155.330718-155.330718s155.335834 69.686129 155.335834 155.330718c0 85.617983-69.661569 155.279552-155.335834 155.279552S357.161493 420.250366 357.161493 334.632383L357.161493 334.632383zM357.161493 334.632383" p-id="5652" fill="#CDD4D8"></path><path d="M275.264251 497.610268c8.847505-0.841158 15.990183-7.586792 17.386996-16.379039 1.37123-8.792247-3.413749-17.443277-11.589966-20.942985-3.917216-1.679245-95.529727-42.054815-88.25095-136.90916 8.344039-108.017132 125.991506-121.089869 131.087571-121.624035 10.667967-1.033539 18.507516-10.526751 17.472953-21.223371-1.007957-10.723226-10.389628-18.533099-21.223371-17.554818-53.671387 5.125741-157.488871 44.600801-166.19516 157.408029-5.348821 70.160943 32.366152 120.585379 69.688175 150.153812-64.87352 22.590508-171.181731 86.792739-158.023036 263.544325 0.7552 10.219759 9.295714 18.058284 19.373233 18.058284 0.50449 0 0.983397 0 1.487887-0.056282 10.722202-0.811482 18.784832-10.163477 17.972327-20.88568C88.660272 518.694469 267.707135 498.337839 275.264251 497.610268L275.264251 497.610268zM275.264251 497.610268" p-id="5653" fill="#CDD4D8"></path><path d="M801.320385 470.538703c37.322024-29.623691 75.061556-79.991846 69.631894-150.153812-8.68173-112.777553-112.468514-152.255683-166.139901-157.408029-10.779507-0.952698-20.216437 6.860245-21.225417 17.528212-1.033539 10.69355 6.832615 20.216437 17.529235 21.249977 5.01113 0.473791 122.631992 12.935614 131.001613 121.594359 7.310499 94.858438-84.327594 135.25959-88.163969 136.8846-8.202822 3.472078-12.991895 12.06478-11.651364 20.856004 1.316995 8.792247 8.484232 15.622816 17.33276 16.490579 7.617491 0.730641 186.66333 21.083178 170.873716 233.5635-0.811482 10.722202 7.250124 20.070104 17.97335 20.881586 0.50449 0.060375 0.982374 0.060375 1.485841 0.060375 10.078543 0 18.619056-7.812943 19.374256-18.058284C972.527698 557.331441 866.219487 493.12921 801.320385 470.538703L801.320385 470.538703zM801.320385 470.538703" p-id="5654" fill="#CDD4D8"></path></svg>