<?xml version="1.0" standalone="no"?><!DOCTYPE svg PUBLIC "-//W3C//DTD SVG 1.1//EN" "http://www.w3.org/Graphics/SVG/1.1/DTD/svg11.dtd"><svg t="1481638334910" class="icon" style="" viewBox="0 0 1024 1024" version="1.1" xmlns="http://www.w3.org/2000/svg" p-id="4932" xmlns:xlink="http://www.w3.org/1999/xlink" width="200" height="200"><defs><style type="text/css"></style></defs><path d="M315.724267 443.68427l-153.590401 0C157.462159 443.68427 153.622399 447.52403 153.622399 452.259734l0 17.086932c0 4.735704 3.83976 8.511468 8.511468 8.511468l153.590401 0c4.735704 0 8.511468-3.83976 8.511468-8.511468L324.235735 452.259734C324.299731 447.52403 320.459971 443.68427 315.724267 443.68427zM588.7952 443.68427 435.2048 443.68427c-4.735704 0-8.511468 3.83976-8.511468 8.511468l0 17.086932c0 4.735704 3.83976 8.511468 8.511468 8.511468l153.590401 0c4.735704 0 8.511468-3.83976 8.511468-8.511468L597.306668 452.259734C597.306668 447.52403 593.530904 443.68427 588.7952 443.68427zM861.866133 443.68427l-153.590401 0c-4.735704 0-8.511468 3.83976-8.511468 8.511468l0 17.086932c0 4.735704 3.83976 8.511468 8.511468 8.511468l153.590401 0c4.735704 0 8.511468-3.83976 8.511468-8.511468L870.377601 452.259734C870.377601 447.52403 866.537841 443.68427 861.866133 443.68427zM853.290669 0 170.709331 0C76.443222 0 0.031998 76.411224 0.031998 170.677333L0.031998 716.755203c0 94.266108 76.411224 170.677333 170.677333 170.677333 0 0 6.3996 0 17.726892 0-0.383976 2.23986-0.703956 4.47972-0.703956 6.847572l0 88.762452c0 22.590588 18.302856 40.95744 40.95744 40.95744l197.299669-136.503469c0-2.367852 0.383976 2.23986 0 0L520.31948 887.496531c178.804825 0 332.971189 0 332.971189 0 94.266108 0 170.677333-76.411224 170.677333-170.677333L1023.968002 170.677333C1023.968002 76.411224 947.556778 0 853.290669 0zM998.369602 716.755203c0 79.995-65.083932 145.078933-145.078933 145.078933L425.989376 861.834135 398.983064 861.834135l0 19.966752-176.116993 115.384788c-5.567652-2.303856-9.471408-7.807512-9.471408-14.207112l0.31998-91.322292 0-29.822136L170.709331 861.834135c-79.995 0-145.078933-65.083932-145.078933-145.078933L25.630398 170.677333C25.630398 90.682332 90.71433 25.5984 170.709331 25.5984l682.645335 0c79.995 0 145.078933 65.083932 145.078933 145.078933L998.433598 716.755203z" p-id="4933" fill="#CDD4D8"></path></svg>