<?xml version="1.0" standalone="no"?><!DOCTYPE svg PUBLIC "-//W3C//DTD SVG 1.1//EN" "http://www.w3.org/Graphics/SVG/1.1/DTD/svg11.dtd"><svg t="1481637941702" class="icon" style="" viewBox="0 0 1024 1024" version="1.1" xmlns="http://www.w3.org/2000/svg" p-id="1015" xmlns:xlink="http://www.w3.org/1999/xlink" width="200" height="200"><defs><style type="text/css"></style></defs><path d="M381.165186 590.786391c-91.952248-56.039317-145.073096-134.768403-148.307767-243.167229-2.266623-75.960019 23.532973-141.870148 75.865875-196.708104C423.543366 30.594809 606.66094 33.771151 719.068056 155.287739c119.122051 128.777969 86.22685 352.063381-76.765361 435.728896 7.951089 3.470031 15.092743 6.631024 22.268166 9.712199 112.555495 48.321542 190.227506 130.027425 230.966349 245.765403 9.261944 26.312272 13.139252 54.55757 19.008936 82.016968 1.00898 4.720511 0.298805 10.147104-0.883113 14.934131-2.949168 11.954263-11.441587 18.191314-22.964014 17.817808-12.226462-0.397043-21.088294-7.831362-23.585161-19.709901-4.691859-22.317285-7.268544-45.351907-14.476713-66.821895-45.75509-136.273686-137.496537-222.568075-279.922341-247.998257-122.007775-21.784142-228.086765 13.602809-315.907926 101.508905-56.93778 56.992015-88.920192 126.557394-99.447966 206.26476-1.988284 15.052834-8.006348 23.602557-19.126616 26.323529-16.812921 4.114714-31.145347-8.580422-29.467125-26.329668 6.036483-63.86454 26.680663-122.737392 61.452607-176.449711 47.130414-72.802096 111.054305-125.504412 191.192483-158.399613 5.142114-2.111081 10.194176-4.442172 15.281031-6.685259C377.651153 592.543408 378.581338 592.049151 381.165186 590.786391zM511.632633 572.410881c126.089743 0.030699 227.637534-101.603049 229.544977-225.201042C743.253898 212.605166 636.475989 115.088178 517.492084 111.997793c-124.541481-3.234671-233.487775 96.110965-235.544621 226.542596C279.93155 466.382033 382.093325 572.373019 511.632633 572.410881z" p-id="1016" fill="#CDD4D8"></path></svg>