<?xml version="1.0" standalone="no"?><!DOCTYPE svg PUBLIC "-//W3C//DTD SVG 1.1//EN" "http://www.w3.org/Graphics/SVG/1.1/DTD/svg11.dtd"><svg t="1481593367221" class="icon" style="" viewBox="0 0 1024 1024" version="1.1" xmlns="http://www.w3.org/2000/svg" p-id="5229" xmlns:xlink="http://www.w3.org/1999/xlink" width="200" height="200"><defs><style type="text/css"></style></defs><path d="M512 0C229.23264 0 0 229.23264 0 512s229.23264 512 512 512c282.76736 0 512-229.23264 512-512S794.76736 0 512 0zM789.62688 433.60256l-196.75136 139.38688c-4.17792 2.9696-9.6256 4.42368-15.09376 4.62848-0.43008 0.04096-0.79872 0.26624-1.24928 0.26624-12.16512 0-21.99552-9.95328-21.99552-22.26176L554.53696 489.0624c-51.13856 2.51904-180.79744 21.58592-261.61152 146.37056-29.92128 41.32864-51.712 89.04704-61.7472 141.27104-0.512-2.78528-1.26976-5.48864-1.69984-8.27392-0.512 3.29728-1.47456 6.41024-1.88416 9.76896-1.04448-8.45824-1.80224-16.9984-2.33472-25.6 0.12288-3.44064 0.65536-6.41024 0.83968-9.78944-0.43008-5.12-0.49152-10.32192-0.75776-15.50336 13.88544-313.79456 254.40256-362.94656 329.19552-370.64704l0-68.1984c0-12.30848 9.8304-22.26176 21.99552-22.26176l0-0.02048c5.91872 0.02048 11.81696 1.61792 16.34304 4.79232l196.75136 139.38688C798.67904 416.80896 798.67904 427.17184 789.62688 433.60256z" p-id="5230" fill="#808080"></path></svg>